<svg width="106" height="125" viewBox="0 0 106 125" fill="none" xmlns="http://www.w3.org/2000/svg">
<g clip-path="url(#clip0_13_120)">
<path d="M49.6011 98.3955C49.564 98.3955 49.5269 98.3953 49.4898 98.3938C45.2164 98.259 41.473 95.4358 40.1741 91.3694C40.1702 91.3577 40.1668 91.3462 40.1631 91.3345L32.678 67.0186C30.9957 61.7117 33.9361 56.0203 39.2398 54.324C41.8148 53.5017 44.5543 53.7312 46.9546 54.969C47.4466 55.2227 47.9124 55.5122 48.3489 55.835V27.5764C48.3489 21.9995 52.8863 17.4624 58.4634 17.4624C64.0403 17.4624 68.5774 21.9998 68.5774 27.5764V36.4824C68.5774 38.397 67.0254 39.949 65.1109 39.949C63.1963 39.949 61.6443 38.397 61.6443 36.4824V27.5764C61.6443 25.822 60.2171 24.3953 58.4632 24.3953C56.7093 24.3953 55.2818 25.8225 55.2818 27.5764V71.7817C55.2818 73.489 54.0386 74.9421 52.3519 75.2063C50.6641 75.4705 49.0369 74.4675 48.5149 72.842L45.3511 62.9956C44.816 61.3193 43.0218 60.3948 41.3499 60.9282C39.6805 61.4622 38.7552 63.2573 39.2886 64.9294C39.292 64.9409 39.296 64.9519 39.2994 64.9634L46.7828 89.2734C47.1946 90.5422 48.3682 91.4216 49.7086 91.4639C51.6221 91.5242 53.1243 93.1248 53.064 95.0381C53.0049 96.9148 51.4649 98.3955 49.6011 98.3955Z" fill="#5ACE5A"/>
<path d="M50.9678 55.0174C51.2466 55.1641 51.5318 55.2479 51.815 55.2881V27.5765C51.815 23.9051 54.7911 20.9285 58.4629 20.9285C60.8531 20.9285 62.9422 22.1942 64.1141 24.0875C64.2105 22.8211 63.3602 21.5389 61.9139 21.3289L46.2916 19.0587L39.3052 4.90265C38.3602 2.98785 35.6297 2.98785 34.6849 4.90265L27.6985 19.0587L12.0762 21.3289C9.96319 21.636 9.11944 24.2327 10.6485 25.7234L21.9529 36.7422L19.2845 52.3016C18.9236 54.4061 21.1324 56.011 23.0228 55.0176L36.9957 47.6714L50.9678 55.0174Z" fill="#C3F0C2"/>
<path d="M21.823 58.7854C20.0396 58.7854 18.3523 57.9976 17.1939 56.623C16.0494 55.2651 15.566 53.4766 15.868 51.7156L18.2286 37.9526L8.22881 28.2056C6.56938 26.5881 5.98369 24.2146 6.69976 22.011C7.41558 19.8074 9.28496 18.2314 11.5777 17.8984L25.3963 15.8904L31.5762 3.36841C32.6019 1.29102 34.6783 0 36.9949 0C39.3118 0 41.3882 1.29102 42.4136 3.36841L48.5936 15.8906L62.4122 17.8987C65.5452 18.3538 67.8108 21.1877 67.5704 24.3508C67.4566 25.8474 66.3929 27.1003 64.9349 27.4558C63.4766 27.8118 61.9554 27.1882 61.1661 25.9119C60.5784 24.9624 59.5679 24.3953 58.4629 24.3953C56.7085 24.3953 55.2815 25.8225 55.2815 27.5769V55.2881C55.2815 56.2927 54.8458 57.2476 54.0875 57.906C53.3292 58.5645 52.3223 58.8621 51.3274 58.72C50.6309 58.6208 49.9671 58.4077 49.3548 58.0852L36.9952 51.5874L24.6355 58.0852C23.7645 58.5435 22.7918 58.7854 21.823 58.7854ZM14.3597 24.5L24.3721 34.2603C25.1893 35.0564 25.5621 36.2039 25.3692 37.3284L23.0057 51.1096L35.3819 44.6028C36.3919 44.072 37.5984 44.072 38.6082 44.6028L48.3489 49.7239V27.5767C48.3489 25.938 48.7405 24.3889 49.4354 23.0186L45.7935 22.4893C44.6644 22.3252 43.6883 21.616 43.1836 20.593L36.9954 8.0542L30.8072 20.593C30.302 21.616 29.3262 22.3252 28.1973 22.4893L14.3597 24.5Z" fill="#5ACE5A"/>
<path d="M90.2208 97.2485C88.5098 97.2485 87.0213 95.9819 86.7889 94.2393C86.5362 92.3418 87.8697 90.5984 89.7672 90.3455C91.4207 90.1252 92.6676 88.699 92.6676 87.0271V68.4812C92.6676 66.6333 91.1641 65.1299 89.3162 65.1299C88.7208 65.1299 88.1573 65.281 87.6422 65.5789C86.5697 66.1995 85.2476 66.1997 84.1746 65.5806C83.1019 64.9614 82.4403 63.8169 82.4403 62.5779V62.3906C82.4403 60.5427 80.9368 59.0393 79.0885 59.0393C78.4915 59.0393 77.9295 59.1897 77.4183 59.4861C76.3458 60.1077 75.023 60.1096 73.949 59.4905C72.8751 58.8718 72.2135 57.7263 72.2135 56.4868V55.7197C72.2135 53.8718 70.71 52.3684 68.8616 52.3684C68.2051 52.3684 67.5694 52.5593 67.0223 52.9209C65.4246 53.9763 63.2742 53.5376 62.2191 51.9407C61.1636 50.3437 61.6024 48.1926 63.1993 47.1375C64.8836 46.0239 66.8419 45.4353 68.8614 45.4353C73.2679 45.4353 77.036 48.2207 78.4971 52.123C78.6937 52.1116 78.8909 52.106 79.0882 52.106C83.2791 52.106 86.8927 54.6257 88.4935 58.2297C88.7667 58.208 89.0408 58.1968 89.3157 58.1968C94.9866 58.1968 99.6002 62.8103 99.6002 68.4812V87.0271C99.6002 92.1594 95.7662 96.5405 90.6824 97.2178C90.5277 97.2385 90.3734 97.2485 90.2208 97.2485Z" fill="#5ACE5A"/>
<path d="M86.2131 121.533H52.2356C48.9719 121.533 46.3264 118.888 46.3264 115.624V106.694H92.1226V115.624C92.1223 118.888 89.4768 121.533 86.2131 121.533Z" fill="#C3F0C2"/>
<path d="M86.2134 125H52.2356C47.0657 125 42.8599 120.794 42.8599 115.625V106.695C42.8599 104.78 44.4119 103.228 46.3264 103.228H92.1226C94.0371 103.228 95.5891 104.78 95.5891 106.695V115.625C95.5889 120.794 91.3831 125 86.2134 125ZM49.7927 110.161V115.625C49.7927 116.971 50.8884 118.067 52.2356 118.067H86.2136C87.5603 118.067 88.656 116.971 88.656 115.625V110.161H49.7927Z" fill="#5ACE5A"/>
</g>
<defs>
<clipPath id="clip0_13_120">
<rect width="105" height="125" fill="white" transform="translate(0.5)"/>
</clipPath>
</defs>
</svg>
