<svg width="75" height="75" viewBox="0 0 75 75" fill="none" xmlns="http://www.w3.org/2000/svg">
<path d="M1.49994 13.5V30H5.99994C6.50211 30 6.99971 30.0204 7.49994 30.0293V39.0264C7.00103 39.0218 6.49615 39 5.99994 39H1.49994V55.5H4.65228C5.35262 58.9119 8.38921 61.5 11.9999 61.5C15.6107 61.5 18.6473 58.9119 19.3476 55.5H22.6523C23.3526 58.9119 26.3892 61.5 29.9999 61.5C32.954 61.5 35.5011 59.7644 36.7206 57.2637C39.1472 58.8351 40.7934 60.8925 40.8193 60.9258C41.1028 61.2873 41.5394 61.5 41.9999 61.5H62.9999C63.6059 61.5 64.1532 61.1352 64.3857 60.5742C64.6182 60.0132 64.4895 59.3685 64.0605 58.9395L60.621 55.5H44.9999C44.1719 55.5 43.4999 54.8295 43.4999 54C43.4999 53.1705 44.1719 52.5 44.9999 52.5H57.621L60.621 55.5C71.9655 54.867 73.506 50.0997 73.497 48.0732C73.482 44.7837 71.8754 42.1079 66.9374 38.1914L66.6035 37.9189C58.2665 31.0324 47.3736 24.573 35.0976 19.248C22.8876 13.9485 11.4555 13.5344 5.05951 13.5029C4.49551 13.4999 3.9707 13.5 3.4892 13.5H1.49994ZM20.8622 17.9707C24.9512 18.7837 29.3768 20.0385 33.9023 22.002C40.1423 24.711 46.1117 27.7934 51.5507 31.0664C46.6847 30.4439 38.2109 29.0715 31.3124 26.4375C25.4474 24.198 22.8317 20.3347 20.8622 17.9707ZM10.4999 30.1318C14.1084 30.3183 17.6348 30.7063 20.9999 31.2363V39.5977C17.5868 39.3549 14.0617 39.1708 10.4999 39.0791V30.1318ZM23.9999 31.749C27.2327 32.3478 30.2185 33.0613 32.9999 33.8027L31.8427 40.5703C29.3758 40.306 26.8979 40.0507 23.9999 39.8145V31.749ZM35.9062 34.6025C40.2289 35.8696 43.7723 37.1557 46.0576 38.1123C46.5256 38.3088 46.6629 38.8986 46.3359 39.2871L44.2587 41.7539C44.0907 41.9534 43.8443 42.0521 43.5878 42.0146C42.5484 41.8605 39.0792 41.4056 34.8281 40.9102L35.9062 34.6025ZM7.7724 55.5H16.2275C15.6131 57.2506 13.9722 58.5 11.9999 58.5C10.0277 58.5 8.38679 57.2506 7.7724 55.5ZM25.7724 55.5H31.4999C32.3765 55.5 33.2294 55.6724 34.0429 55.9453C33.3197 57.4509 31.7984 58.5 29.9999 58.5C28.0277 58.5 26.3868 57.2506 25.7724 55.5Z" fill="#77DD77"/>
</svg>
