<svg width="149" height="149" viewBox="0 0 149 149" fill="none" xmlns="http://www.w3.org/2000/svg">
<path d="M30.4262 0.000183105C44.9863 0.000183105 56.8318 11.8456 56.8318 26.4057C56.8318 40.9658 44.9863 52.8113 30.4262 52.8113C15.8665 52.8113 4.0207 40.9658 4.0207 26.4057C4.0207 11.8456 15.8658 0.000183105 30.4262 0.000183105ZM30.4262 46.8913C41.7221 46.8913 50.9118 37.7016 50.9118 26.4057C50.9118 15.1099 41.7228 5.92019 30.4262 5.92019C19.1311 5.92019 9.9407 15.1099 9.9407 26.4057C9.9407 37.7012 19.1311 46.8913 30.4262 46.8913Z" fill="url(#paint0_linear_13_109)"/>
<path d="M30.4455 9.86902C31.9357 9.86902 33.1431 11.0768 33.1431 12.5648V23.7081H40.1535C41.6397 23.7081 42.8471 24.9159 42.8471 26.4057C42.8471 27.8937 41.6397 29.1014 40.1535 29.1014H30.4459C28.9561 29.1014 27.748 27.8937 27.748 26.4057V12.5648C27.7476 11.0768 28.955 9.86902 30.4455 9.86902Z" fill="url(#paint1_linear_13_109)"/>
<path d="M123.128 27.7971C121.515 30.5916 119.507 33.2162 116.987 35.2541C114.994 36.8659 112.649 38.1052 110.102 38.5263C110.102 38.5263 106.44 39.1544 103.026 37.4083C101.1 36.4234 99.22 34.6653 98.1245 32.5907C96.932 30.3335 96.5087 27.7463 96.5994 25.2136C96.7134 22.0234 97.6028 18.891 98.8625 15.9734C99.9693 13.412 101.357 10.8724 103.453 8.9811C105.155 7.44592 107.277 6.49592 109.573 6.36124C112.359 6.19861 115.107 7.1232 117.569 8.35018C120.09 9.60693 122.554 11.2674 124.175 13.62C125.484 15.5211 126.063 17.7831 125.882 20.0809C125.664 22.8431 124.496 25.4267 123.128 27.7971Z" fill="#34B335"/>
<path d="M29.8817 65.2887C30.7856 63.7012 32.8051 63.1472 34.3932 64.0515L42.7629 68.8175L43.8505 66.9066C44.7384 65.3467 46.3908 64.4889 48.0712 64.5329C48.0237 64.9237 47.943 65.9644 48 67C48.057 68.0356 48.1569 68.6197 48.1997 68.7823C47.95 68.6393 47.6291 68.7271 47.4864 68.978L46.3981 70.8885L54.9183 75.7409L56.0067 73.8296C56.1392 73.5955 56.0662 73.3083 55.8535 73.1541C56.2356 73.1027 57.2 72.9 58 72.5C58.8 72.1 59.3979 71.447 59.5969 71.1705C60.4285 72.5779 60.5091 74.3796 59.643 75.8995L58.555 77.8108L66.9243 82.5768C68.5117 83.4803 69.0649 85.5008 68.1621 87.0876L55.3369 109.609C54.4323 111.196 52.4121 111.75 50.8246 110.846L18.2947 92.3193C16.7073 91.4161 16.1537 89.3956 17.0568 87.8085L29.8817 65.2887Z" fill="#34B335"/>
<path d="M48.0712 64.5329C48.2237 63.9949 48.4364 63.466 48.729 62.9599C49.072 62.3671 54.2798 54.1863 59.2215 47.8553C68.324 36.1939 86.6246 36.0248 88.6829 36.0248C88.9669 36.0248 90.2327 36.0725 91.5584 36.1225C92.7912 36.169 94.0757 36.2175 94.6704 36.2313C95.008 36.2389 95.3296 36.24 95.636 36.2368L68.2696 26.5116C68.0986 26.451 67.9697 26.3098 67.9244 26.1345L66.4672 20.4856C66.4295 20.3386 66.4545 20.1822 66.5369 20.0544C66.6193 19.9266 66.7511 19.8391 66.9007 19.813L74.4956 18.4956C74.643 18.4706 74.7918 18.5061 74.9116 18.594L98.5452 36.0077C98.8756 35.9503 99.1024 35.8919 99.2074 35.8454C99.3144 35.7979 99.4386 35.8055 99.5399 35.8654C99.6412 35.9257 99.7065 36.0309 99.7163 36.1482L100.139 41.3839L100.185 41.7487C100.199 41.862 100.266 41.9618 100.365 42.0185L101.267 42.5339C101.323 42.5659 101.384 42.5819 101.447 42.5819C101.528 42.5819 101.608 42.5546 101.675 42.5013L105.426 39.3659C105.51 39.2955 105.621 39.2668 105.73 39.289C105.839 39.3107 105.931 39.3801 105.981 39.4781C106.001 39.518 108.094 43.5217 112.291 48.243C112.307 48.2602 112.317 48.2795 112.327 48.299L112.334 48.3124C117.733 54.3322 126.55 61.5188 139.028 63.6362C142.765 64.2704 145.422 67.5931 144.919 71.3502C144.457 74.7974 141.51 77.3018 138.125 77.3018C137.821 77.3018 137.514 77.2811 137.205 77.2401C124.338 75.5158 114.782 68.8847 108.761 63.2264L101.97 90.0991C101.694 91.0281 101.325 91.9109 100.879 92.744L115.657 110.84C116.9 112.362 117.579 114.267 117.579 116.233V140.473C117.579 145.182 113.762 148.999 109.053 148.999C104.344 148.999 100.527 145.182 100.527 140.473V119.272L85.5628 100.951C84.7141 100.904 83.8599 100.791 83.0054 100.616L70.2338 123.634C69.339 125.246 67.9447 126.526 66.2614 127.28L48.3112 135.337C47.0842 135.881 45.7312 136.481 43.9488 136.481C43.4421 136.481 42.8986 136.432 42.3153 136.32C37.6919 135.428 34.6666 130.957 35.5585 126.333C36.1259 123.391 38.1414 121.096 40.7242 120.046C41.331 119.781 43.2511 118.917 45.9078 117.721L45.9113 117.72C48.8631 116.391 52.7234 114.654 56.7018 112.875L70.5522 87.9105C70.3213 86.0886 70.4546 84.1976 71.0118 82.3212L79.1106 51.0408C75.5974 52.051 72.0732 53.6955 70.0411 56.3001C65.682 61.8843 60.6866 69.6978 60.6078 69.8354C60.3207 70.3316 59.9787 70.7756 59.5969 71.1705C59.3979 71.447 58.8 72.1 58 72.5C57.2 72.9 56.2356 73.1027 55.8535 73.1541C55.4614 73.2234 55.0628 73.2611 54.6617 73.2611C53.4953 73.2611 52.3119 72.9642 51.2305 72.3373C49.7999 71.5092 48.7802 70.2427 48.2429 68.8066L48.1997 68.7823C48.1569 68.6197 48.057 68.0356 48 67C47.943 65.9644 48.0237 64.9237 48.0712 64.5329Z" fill="#5ACE5A"/>
<defs>
<linearGradient id="paint0_linear_13_109" x1="37.3147" y1="7.64655" x2="32.3862" y2="40.0916" gradientUnits="userSpaceOnUse">
<stop stop-color="#77DD77"/>
<stop offset="0.965" stop-color="#259426"/>
</linearGradient>
<linearGradient id="paint1_linear_13_109" x1="37.267" y1="12.6536" x2="35.0125" y2="24.3057" gradientUnits="userSpaceOnUse">
<stop stop-color="#77DD77"/>
<stop offset="0.965" stop-color="#259426"/>
</linearGradient>
</defs>
</svg>
