<svg width="131" height="131" viewBox="0 0 131 131" fill="none" xmlns="http://www.w3.org/2000/svg">
<g id="salad 1" clip-path="url(#clip0_13_132)">
<g id="Group">
<path id="Vector" d="M119.76 72.8861C120.609 70.0681 121.05 67.1242 121.05 64.1581C121.05 47.5251 107.518 33.993 90.8854 33.993C90.6026 33.993 90.3169 33.9973 90.0293 34.0059C87.5386 30.5321 84.3237 27.6037 80.6197 25.4535C76.0447 22.7977 70.8163 21.3937 65.5 21.3937C60.1837 21.3937 54.9553 22.7977 50.3803 25.4538C46.6763 27.604 43.4614 30.5323 40.9707 34.0061C40.6831 33.9976 40.3974 33.9933 40.1146 33.9933C40.0897 33.9933 40.065 33.9941 40.0404 33.9941V1.87015H31.9991V35.1035C26.5557 36.626 21.7302 39.6406 17.991 43.6763V1.87015H9.94979V72.8861H0.5V89.5786C0.5 111.387 18.2425 129.129 40.0508 129.129H90.9492C112.758 129.129 130.5 111.387 130.5 89.5786V72.8861H119.76ZM40.1146 42.0345C40.9118 42.0345 41.7456 42.0822 42.5935 42.1766L45.1645 42.4626L46.4902 40.2413C50.4688 33.5757 57.7531 29.435 65.5 29.435C73.2469 29.435 80.5312 33.5757 84.5097 40.2413L85.8355 42.4626L88.4065 42.1766C89.2543 42.0822 90.0882 42.0345 90.8854 42.0345C103.084 42.0345 113.009 51.9593 113.009 64.1584C113.009 67.1682 112.393 70.1445 111.218 72.8863H87.8434L98.8489 61.8808L93.1629 56.1949L76.4717 72.8861H69.5206V44.3137H61.4794V72.8861H54.5285L37.8371 56.1949L32.1511 61.8808L43.1566 72.8863H19.7821C18.607 70.1448 17.991 67.1682 17.991 64.1584C17.991 51.9593 27.9155 42.0345 40.1146 42.0345ZM122.459 89.5789C122.459 106.953 108.324 121.088 90.9492 121.088H40.0508C22.6764 121.088 8.54124 106.953 8.54124 89.5789V80.9276H122.459V89.5789Z" fill="#77DD77"/>
</g>
</g>
<defs>
<clipPath id="clip0_13_132">
<rect width="130" height="130" fill="white" transform="translate(0.5 0.5)"/>
</clipPath>
</defs>
</svg>
