<svg width="77" height="77" viewBox="0 0 77 77" fill="none" xmlns="http://www.w3.org/2000/svg">
<path d="M73.7917 38.5C73.7917 39.6374 73.7378 40.7622 73.6326 41.872C71.8147 40.0532 69.6863 38.545 67.3337 37.4333C66.7725 21.9924 54.0781 9.64695 38.5 9.64695C22.5649 9.64695 9.64695 22.5649 9.64695 38.5C9.64695 54.0781 21.9924 66.7725 37.4333 67.3337C38.545 69.6863 40.0532 71.8147 41.872 73.6326C40.7622 73.7378 39.6374 73.7917 38.5 73.7917C19.009 73.7917 3.20837 57.991 3.20837 38.5C3.20837 19.009 19.009 3.20837 38.5 3.20837C57.991 3.20837 73.7917 19.009 73.7917 38.5Z" fill="#77DD77"/>
<path d="M41.7084 38.1189L44.4118 39.6797C42.6218 41.0032 41.0353 42.5865 39.7083 44.3735L36.9517 42.7819C36.3945 42.4601 35.9703 41.9965 35.6982 41.4629C35.2917 40.8338 35.2917 39.9973 35.2917 39.9973V19.25C35.2917 17.4781 36.7281 16.0417 38.5001 16.0417C40.272 16.0417 41.7084 17.4781 41.7084 19.25V38.1189Z" fill="#77DD77"/>
<path d="M49.0648 56.8103C50.3176 55.5575 52.3491 55.5575 53.602 56.8103L55.6588 58.8672L61.7518 52.7742C63.005 51.5214 65.0362 51.5214 66.289 52.7742C67.5422 54.0274 67.5422 56.0586 66.289 57.3118L58.1392 65.4616C57.862 65.7388 57.547 65.9547 57.2104 66.109C55.9816 66.8277 54.3771 66.6602 53.3235 65.6063L49.0648 61.3475C47.8119 60.0947 47.8119 58.0632 49.0648 56.8103Z" fill="#77DD77"/>
<path fill-rule="evenodd" clip-rule="evenodd" d="M57.75 77C68.3815 77 77 68.3815 77 57.75C77 47.1185 68.3815 38.5 57.75 38.5C47.1185 38.5 38.5 47.1185 38.5 57.75C38.5 68.3815 47.1185 77 57.75 77ZM57.75 70.6414C50.6304 70.6414 44.8586 64.8696 44.8586 57.75C44.8586 50.6304 50.6304 44.8586 57.75 44.8586C64.8696 44.8586 70.6414 50.6304 70.6414 57.75C70.6414 64.8696 64.8696 70.6414 57.75 70.6414Z" fill="#77DD77"/>
</svg>
