<svg width="422" height="144" viewBox="0 0 422 144" fill="none" xmlns="http://www.w3.org/2000/svg">
<path d="M2.29196 126.967C18.5339 96.656 66.5841 46.7942 128.849 89.8358C206.681 143.638 70.1134 154.346 86.8513 99.1142C94.142 75.0564 113.474 60.7133 137.12 55.4883" stroke="#77DD77" stroke-width="3.57414" stroke-dasharray="14.3 14.3"/>
<rect width="254" height="58" transform="translate(58 51.1906) rotate(-3.74862)" fill="#77DD77"/>
<path d="M97.5908 90.6867L89.6458 67.3161L94.3079 67.0106L100.65 86.9587L99.4362 87.0382L103.344 66.4186L107.847 66.1236L114.38 86.0591L113.167 86.1386L116.852 65.5336L121.514 65.2281L116.686 89.4356L111.705 89.7619L105.143 70.3734L106.548 70.2814L102.572 90.3603L97.5908 90.6867ZM125.356 88.8675L123.773 64.6953L127.956 64.4212L128.625 74.6393L128.011 74.0703C128.347 73.0007 128.955 72.1698 129.835 71.5776C130.736 70.9628 131.803 70.6149 133.038 70.534C134.315 70.4503 135.462 70.6532 136.477 71.1425C137.514 71.6304 138.342 72.3565 138.961 73.3208C139.579 74.2637 139.93 75.3845 140.015 76.683L140.747 87.8591L136.564 88.1331L135.897 77.947C135.847 77.1806 135.654 76.5305 135.32 75.9965C134.986 75.4626 134.543 75.064 133.991 74.8008C133.459 74.515 132.842 74.3951 132.14 74.4411C131.458 74.4858 130.862 74.6852 130.351 75.0393C129.838 75.3722 129.451 75.8252 129.189 76.3982C128.927 76.9712 128.822 77.6409 128.872 78.4072L129.539 88.5934L125.356 88.8675ZM149.578 87.6653C148.365 87.7448 147.298 87.6116 146.377 87.2657C145.457 86.9198 144.727 86.3904 144.189 85.6774C143.649 84.9431 143.346 84.0757 143.281 83.0752C143.218 82.1173 143.375 81.2518 143.752 80.4788C144.127 79.6846 144.746 79.0027 145.606 78.4332C146.467 77.8637 147.571 77.4279 148.92 77.1258L154.543 75.8274L154.752 79.0205L149.921 80.1708C149.101 80.3743 148.501 80.6808 148.121 81.0905C147.742 81.5002 147.572 82.0137 147.613 82.631C147.652 83.2271 147.907 83.6914 148.378 84.024C148.868 84.3339 149.454 84.4666 150.135 84.4219C151.008 84.3647 151.763 84.1336 152.399 83.7285C153.055 83.3006 153.542 82.7449 153.861 82.0613C154.201 81.3763 154.345 80.6399 154.294 79.8523L154.001 75.3819C153.952 74.6368 153.613 74.039 152.985 73.5884C152.377 73.1152 151.594 72.9099 150.636 72.9727C149.742 73.0313 148.96 73.3284 148.289 73.864C147.639 74.377 147.18 75.0378 146.912 75.8463L143.386 74.4098C143.667 73.4721 144.148 72.6496 144.828 71.9422C145.529 71.2122 146.366 70.6228 147.342 70.1741C148.317 69.7253 149.39 69.4626 150.561 69.3859C151.988 69.2925 153.261 69.4763 154.381 69.9373C155.501 70.3771 156.389 71.0458 157.046 71.9434C157.724 72.8183 158.103 73.8731 158.184 75.1078L158.941 86.667L154.981 86.9265L154.787 83.9568L155.677 83.8344C155.279 84.6087 154.788 85.2716 154.204 85.8229C153.618 86.353 152.941 86.7822 152.172 87.1106C151.401 87.4176 150.536 87.6025 149.578 87.6653ZM170.427 86.1069C168.468 86.2352 166.912 85.8027 165.756 84.8095C164.621 83.7935 163.989 82.3063 163.86 80.3479L163.358 72.6843L160.357 72.881L160.112 69.145L160.431 69.1241C161.283 69.0683 161.928 68.8015 162.367 68.3238C162.806 67.8461 162.998 67.1814 162.942 66.3299L162.854 64.9888L167.037 64.7147L167.297 68.6743L171.288 68.4127L171.533 72.1487L167.541 72.4102L168.029 79.8503C168.066 80.4251 168.194 80.9084 168.412 81.3003C168.652 81.6908 168.991 81.9786 169.431 82.1636C169.892 82.3472 170.463 82.4166 171.144 82.372C171.293 82.3622 171.463 82.3404 171.653 82.3066C171.865 82.2714 172.065 82.2368 172.256 82.203L172.49 85.7793C172.195 85.8414 171.857 85.9063 171.477 85.974C171.096 86.0417 170.746 86.086 170.427 86.1069ZM181.361 85.1981L180.223 67.8273L184.406 67.5532L185.544 84.924L181.361 85.1981ZM180.095 65.8795L179.803 61.4091L183.986 61.135L184.278 65.6054L180.095 65.8795ZM196.041 84.6211C194.189 84.7424 192.543 84.412 191.102 83.6299C189.681 82.8251 188.666 81.6837 188.056 80.2057L191.087 78.4999C191.598 79.4498 192.265 80.1758 193.089 80.6776C193.934 81.1781 194.847 81.3963 195.826 81.3321C196.592 81.2819 197.188 81.0718 197.613 80.702C198.037 80.3321 198.231 79.8704 198.195 79.3169C198.173 78.9763 198.059 78.7058 197.853 78.5055C197.668 78.2825 197.41 78.1069 197.081 77.9789C196.772 77.8281 196.433 77.7113 196.064 77.6286L193.17 77.0165C191.673 76.687 190.513 76.1109 189.69 75.2884C188.887 74.4644 188.447 73.4563 188.369 72.2642C188.299 71.1998 188.505 70.2564 188.985 69.4339C189.486 68.5887 190.2 67.9112 191.129 67.4014C192.079 66.8902 193.182 66.5934 194.438 66.5111C196.077 66.4037 197.55 66.7027 198.858 67.4081C200.166 68.1134 201.132 69.1618 201.758 70.5532L198.663 72.2632C198.313 71.4951 197.772 70.8999 197.039 70.4776C196.306 70.0553 195.503 69.8727 194.63 69.9299C193.927 69.9759 193.384 70.1719 193.001 70.5177C192.617 70.8635 192.442 71.2918 192.476 71.8028C192.497 72.1221 192.6 72.3932 192.786 72.6162C192.971 72.8392 193.218 73.0155 193.526 73.145C193.855 73.2731 194.226 73.3877 194.639 73.489L197.471 74.1372C198.925 74.4695 200.063 75.0363 200.885 75.8376C201.729 76.6375 202.191 77.6548 202.272 78.8894C202.34 79.9325 202.124 80.8767 201.624 81.7219C201.122 82.5458 200.396 83.2133 199.446 83.7245C198.496 84.2357 197.361 84.5346 196.041 84.6211ZM211.835 83.2014L210.277 59.4124L214.428 59.1405L224.13 70.6588L222.15 70.7885L230.074 58.1153L234.225 57.8433L235.784 81.6323L231.409 81.9189L230.175 63.0793L231.895 63.3836L223.647 76.0138L223.136 76.0473L213.534 64.5865L214.944 64.0773L216.178 82.9169L211.835 83.2014ZM248.249 81.2005C246.461 81.3176 244.87 81.0157 243.475 80.2946C242.081 79.5735 240.966 78.5456 240.131 77.2107C239.295 75.8758 238.822 74.3675 238.712 72.6858C238.597 70.9402 238.869 69.3724 239.526 67.9825C240.203 66.5698 241.165 65.4272 242.412 64.5544C243.68 63.6803 245.123 63.1903 246.741 63.0843C248.104 62.995 249.31 63.1404 250.362 63.5205C251.434 63.8992 252.358 64.4587 253.133 65.1989C253.909 65.9391 254.521 66.8076 254.971 67.8043C255.42 68.7797 255.683 69.8528 255.76 71.0236C255.779 71.3217 255.778 71.6317 255.756 71.9538C255.756 72.2745 255.721 72.5548 255.651 72.7945L242.24 73.6732L242.031 70.4801L253.079 69.7562L251.198 71.3867C251.325 70.3949 251.215 69.5256 250.866 68.7787C250.539 68.0305 250.031 67.4545 249.342 67.0507C248.674 66.6455 247.883 66.4729 246.967 66.5329C246.094 66.5901 245.332 66.8645 244.68 67.3562C244.027 67.8265 243.547 68.4993 243.241 69.3746C242.955 70.2271 242.893 71.2466 243.057 72.4332C243.041 73.5031 243.242 74.4414 243.658 75.2479C244.094 76.0317 244.689 76.6234 245.442 77.023C246.216 77.4213 247.082 77.589 248.04 77.5262C248.998 77.4635 249.794 77.2082 250.427 76.7605C251.082 76.3114 251.579 75.7337 251.917 75.0274L255.411 76.4661C255.125 77.3186 254.64 78.0879 253.959 78.774C253.277 79.46 252.447 80.0168 251.47 80.4442C250.515 80.8703 249.441 81.1223 248.249 81.2005ZM264.769 80.1181C263.555 80.1976 262.488 80.0644 261.568 79.7185C260.647 79.3726 259.918 78.8432 259.379 78.1302C258.839 77.3959 258.537 76.5285 258.471 75.528C258.408 74.57 258.566 73.7046 258.942 72.9316C259.318 72.1374 259.936 71.4555 260.797 70.886C261.657 70.3165 262.762 69.8807 264.11 69.5786L269.733 68.2802L269.943 71.4733L265.112 72.6236C264.291 72.827 263.691 73.1336 263.312 73.5433C262.932 73.953 262.763 74.4665 262.803 75.0838C262.842 75.6799 263.097 76.1442 263.568 76.4768C264.059 76.7867 264.645 76.9194 265.326 76.8747C266.199 76.8175 266.953 76.5864 267.589 76.1812C268.246 75.7534 268.733 75.1977 269.052 74.5141C269.391 73.8291 269.536 73.0927 269.484 72.3051L269.191 67.8347C269.142 67.0896 268.804 66.4918 268.176 66.0412C267.567 65.568 266.784 65.3627 265.826 65.4255C264.932 65.4841 264.15 65.7812 263.48 66.3168C262.829 66.8298 262.37 67.4906 262.102 68.2991L258.577 66.8625C258.858 65.9249 259.338 65.1023 260.019 64.395C260.719 63.665 261.557 63.0756 262.532 62.6269C263.508 62.1781 264.581 61.9154 265.752 61.8387C267.178 61.7453 268.451 61.9291 269.572 62.3901C270.691 62.8299 271.579 63.4986 272.237 64.3962C272.914 65.2711 273.293 66.3259 273.374 67.5606L274.132 79.1198L270.172 79.3792L269.977 76.4096L270.867 76.2872C270.469 77.0615 269.978 77.7244 269.394 78.2757C268.809 78.8058 268.132 79.235 267.362 79.5634C266.591 79.8704 265.727 80.0553 264.769 80.1181ZM277.998 78.8665L276.414 54.6943L280.597 54.4203L282.181 78.5924L277.998 78.8665Z" fill="white"/>
<path d="M421.605 45.9797C350.48 41.6905 316.157 172.882 281.856 134.976C238.979 87.5927 333.547 79.667 281.856 41.6905C246.829 15.957 192.86 33.4702 196.077 45.9797" stroke="url(#paint0_linear_9_348)" stroke-width="3.57414" stroke-dasharray="14.3 14.3"/>
<defs>
<linearGradient id="paint0_linear_9_348" x1="308.659" y1="-0.977413" x2="267.143" y2="84.0185" gradientUnits="userSpaceOnUse">
<stop stop-color="#77DD77"/>
<stop offset="0.965" stop-color="#259426"/>
</linearGradient>
</defs>
</svg>
